<svg width="266" height="143" fill="none" xmlns="http://www.w3.org/2000/svg">
    <g filter="url(#a)">
        <path fill-rule="evenodd" clip-rule="evenodd" d="M88.154 73.239c29.41-35.945 54.989-55.6 76.632-64.082 21.547-8.444 39.222-5.836 53.17 2.877 14.042 8.771 24.519 23.871 31.226 40.74 6.703 16.855 9.554 35.267 8.515 50.408l3.99.274c1.083-15.785-1.882-34.793-8.788-52.16-6.901-17.356-17.823-33.284-32.824-42.655-15.097-9.43-34.109-12.08-56.748-3.209-22.543 8.834-48.646 29.068-78.269 65.274-25.857 31.603-44.413 48.8-56.94 55.962-6.296 3.6-10.698 4.449-13.597 3.769-2.686-.63-4.622-2.723-5.68-6.664-1.07-3.991-1.12-9.551-.144-16.296.971-6.71 2.934-14.439 5.753-22.686 5.639-16.497 14.654-34.92 25.806-51.188l-3.3-2.261C25.596 47.915 16.42 66.664 10.665 83.497c-2.878 8.418-4.912 16.393-5.926 23.407-1.01 6.978-1.035 13.158.24 17.906 1.287 4.798 4.016 8.44 8.628 9.522 4.398 1.031 9.924-.433 16.496-4.191 13.211-7.554 32.158-25.255 58.051-56.902Zm-14.548 37.965a15.557 15.557 0 0 0 1.628-.132l.132 1.276c.117.822.25 1.892.396 3.212.176 1.32.337 2.758.484 4.312.147 1.526.264 3.007.352 4.444.117 1.438.176 2.655.176 3.652 0 1.115.176 1.951.528 2.508.381.558.807.939 1.276 1.144.499.206.939.323 1.32.352h1.1a7.67 7.67 0 0 0 1.276-.22 3.176 3.176 0 0 0 1.276-.704c.381-.352.572-.865.572-1.54 0-.528-.044-1.408-.132-2.64a152.862 152.862 0 0 0-.264-4.18 314.26 314.26 0 0 0-.396-4.752c-.147-1.613-.293-3.08-.44-4.4a67.16 67.16 0 0 0-.396-3.124l2.816-.44.528-.088c.352-.088.763-.22 1.232-.396.47-.205.865-.454 1.188-.748.352-.322.499-.718.44-1.188-.03-.469-.264-.806-.704-1.012a4.067 4.067 0 0 0-1.496-.44 7.925 7.925 0 0 0-1.408-.044h-.616l-12.32 1.144-.572.088c-.352.03-.763.132-1.232.308a3.57 3.57 0 0 0-1.232.66c-.323.294-.47.69-.44 1.188.059.499.352.88.88 1.144.528.235 1.159.396 1.892.484.733.088 1.452.132 2.156.132Zm29.839 2.992c-1.026-.293-2.273-.425-3.74-.396l-.88.088c-.586.059-1.32.22-2.2.484-.85.264-1.716.704-2.596 1.32-.88.616-1.628 1.482-2.244 2.596-.616 1.086-.938 2.494-.968 4.224-.03 1.731.279 3.183.924 4.356.646 1.144 1.452 2.068 2.42 2.772.998.675 1.98 1.188 2.948 1.54.998.323 1.834.543 2.508.66l1.012.132h.792c.528 0 1.086-.029 1.672-.088.616-.088 1.056-.234 1.32-.44l.132.176c.088.118.323.22.704.308.382.088.998.103 1.848.044 1.144-.088 1.966-.249 2.464-.484.499-.264.792-.645.88-1.144.118-.498.176-1.158.176-1.98 0-.498-.044-1.188-.132-2.068-.088-.88-.19-1.818-.308-2.816a66.697 66.697 0 0 0-.396-2.86c-.117-.909-.22-1.657-.308-2.244l-.132-.88-.22-.396a.827.827 0 0 0-.704-.484c-.176 0-.454-.146-.836-.44-.381-.293-.909-.63-1.584-1.012-.674-.381-1.525-.704-2.552-.968Zm-1.408 3.476c.499.235.822.455.968.66l.704 7.172-.176.44c-.117.294-.278.646-.484 1.056a5.222 5.222 0 0 1-.748 1.056c-.293.294-.601.44-.924.44-.44 0-.924-.234-1.452-.704-.498-.469-.924-1.144-1.276-2.024-.352-.88-.513-1.921-.484-3.124.03-1.202.19-2.229.484-3.08.323-.88.631-1.54.924-1.98.323-.469.484-.718.484-.748 0-.058.206 0 .616.176.44.176.895.396 1.364.66Zm15.009 6.6c1.232.382 2.948.602 5.148.66 1.35.03 2.274.176 2.772.44.528.235.822.484.88.748l.088.352v.264c0 .147-.088.338-.264.572-.176.235-.513.44-1.012.616-.469.147-1.188.206-2.156.176-.762-.029-1.334-.102-1.716-.22-.381-.117-.66-.264-.836-.44a4.515 4.515 0 0 0-.572-.484c-.205-.176-.513-.322-.924-.44-.381-.117-.997-.19-1.848-.22-.997-.029-1.716.088-2.156.352-.41.235-.674.543-.792.924a5.276 5.276 0 0 0-.132 1.188l.176.528c.118.323.44.704.968 1.144.558.44 1.467.822 2.728 1.144 1.291.323 3.095.455 5.412.396 2.142-.058 3.843-.337 5.104-.836 1.291-.498 2.244-1.085 2.86-1.76.616-.674 1.012-1.32 1.188-1.936.206-.616.308-1.07.308-1.364 0-.293-.058-.689-.176-1.188-.088-.528-.425-1.056-1.012-1.584-.557-.528-1.525-.982-2.904-1.364-1.349-.41-3.3-.66-5.852-.748-1.349-.029-2.288-.161-2.816-.396-.498-.234-.792-.469-.88-.704l-.088-.352v-.22c.03-.176.118-.381.264-.616.176-.234.499-.425.968-.572.499-.176 1.232-.249 2.2-.22.792.03 1.364.103 1.716.22.382.118.66.264.836.44.206.176.396.352.572.528.206.147.514.279.924.396.411.118 1.027.191 1.848.22 1.027.03 1.746-.073 2.156-.308.44-.264.704-.586.792-.968.088-.41.132-.806.132-1.188l-.176-.484c-.117-.352-.454-.748-1.012-1.188-.528-.44-1.422-.821-2.684-1.144-1.261-.322-3.065-.454-5.412-.396-2.141.059-3.798.338-4.972.836-1.144.499-1.95 1.086-2.42 1.76-.469.675-.748 1.32-.836 1.936-.088.616-.132 1.071-.132 1.364 0 .294.059.704.176 1.232.118.499.426 1.012.924 1.54.528.528 1.408.983 2.64 1.364Zm19.238 4.532.088.836.22.572c.176.382.528.778 1.056 1.188.528.382 1.364.572 2.508.572s1.936-.161 2.376-.484c.469-.322.733-.63.792-.924l.088-.484-.308-3.608 5.016 3.476.484.352a9.14 9.14 0 0 0 1.276.748 6.14 6.14 0 0 0 1.848.528c.704.059 1.422-.088 2.156-.44.733-.352 1.129-.718 1.188-1.1.088-.41.014-.792-.22-1.144a3.123 3.123 0 0 0-.792-.836l-.396-.352-7.084-4.928.572-.572c.381-.381.865-.85 1.452-1.408l1.76-1.672a246.15 246.15 0 0 1 1.584-1.496l.792-.792c.146-.146.322-.381.528-.704.234-.322.278-.674.132-1.056-.118-.381-.602-.689-1.452-.924-1.203-.352-2.186-.454-2.948-.308-.734.118-1.276.308-1.628.572l-.484.352-4.972 4.532-.044.132c0 .059-.03-.044-.088-.308a58.825 58.825 0 0 1-.352-1.892c-.118-.762-.411-1.32-.88-1.672a3.885 3.885 0 0 0-1.54-.704c-.558-.117-1.042-.161-1.452-.132h-.616l-.572.044c-.352 0-.748.088-1.188.264-.411.176-.719.499-.924.968-.206.44-.162 1.1.132 1.98.234.704.454 1.555.66 2.552.205.968.381 1.98.528 3.036.176 1.056.322 2.054.44 2.992.117.91.205 1.658.264 2.244Zm24.793-20.416h-.616c-1.085.118-1.877.338-2.376.66-.469.323-.763.675-.88 1.056-.117.352-.147.66-.088.924l.088.396.264 1.144c.205.734.455 1.702.748 2.904l.968 3.872c.352 1.379.689 2.728 1.012 4.048.323 1.32.616 2.479.88 3.476.264.968.44 1.643.528 2.024.323 1.086.763 1.878 1.32 2.376.587.47 1.628.704 3.124.704.997 0 1.745-.176 2.244-.528.528-.352.88-.704 1.056-1.056l.264-.528 2.464-7.48.616 2.024c.411 1.35.895 3.022 1.452 5.016.293.998.689 1.731 1.188 2.2.528.47 1.056.778 1.584.924.557.147 1.027.206 1.408.176h.572l.484-.044c.323-.029.704-.146 1.144-.352.44-.205.851-.557 1.232-1.056.411-.528.675-1.276.792-2.244.264-1.877.572-3.857.924-5.94.352-2.112.719-4.121 1.1-6.028.381-1.906.719-3.534 1.012-4.884.293-1.378.513-2.273.66-2.684.293-.85.235-1.569-.176-2.156-.381-.586-1.437-.938-3.168-1.056-1.144-.088-2.009.059-2.596.44-.557.382-.939.778-1.144 1.188l-.264.572-1.848 12.936-.396 3.652-.22-.792c-.147-.528-.323-1.173-.528-1.936a32.934 32.934 0 0 0-.572-2.156 38.57 38.57 0 0 0-.396-1.496 8.67 8.67 0 0 0-.484-1.276 2.459 2.459 0 0 0-.88-1.1c-.411-.322-1.012-.484-1.804-.484s-1.393.206-1.804.616c-.381.411-.645.836-.792 1.276l-.22.616-1.892 7.04-.22-1.056c-.117-.704-.279-1.598-.484-2.684a837.514 837.514 0 0 0-.572-3.564 430.679 430.679 0 0 1-.572-3.608 43.692 43.692 0 0 1-.352-2.86c-.088-.938-.367-1.628-.836-2.068-.44-.469-.939-.777-1.496-.924-.557-.176-1.041-.249-1.452-.22Zm40.165 5.808c-1.027-.293-2.273-.425-3.74-.396l-.88.088c-.587.059-1.32.22-2.2.484-.851.264-1.716.704-2.596 1.32-.88.616-1.628 1.482-2.244 2.596-.616 1.086-.939 2.494-.968 4.224-.029 1.731.279 3.183.924 4.356.645 1.144 1.452 2.068 2.42 2.772.997.675 1.98 1.188 2.948 1.54.997.323 1.833.543 2.508.66l1.012.132h.792c.528 0 1.085-.029 1.672-.088.616-.088 1.056-.234 1.32-.44l.132.176c.088.118.323.22.704.308.381.088.997.103 1.848.044 1.144-.088 1.965-.249 2.464-.484.499-.264.792-.645.88-1.144.117-.498.176-1.158.176-1.98 0-.498-.044-1.188-.132-2.068-.088-.88-.191-1.818-.308-2.816a66.697 66.697 0 0 0-.396-2.86c-.117-.909-.22-1.657-.308-2.244l-.132-.88-.22-.396a.828.828 0 0 0-.704-.484c-.176 0-.455-.146-.836-.44-.381-.293-.909-.63-1.584-1.012-.675-.381-1.525-.704-2.552-.968Zm-1.408 3.476c.499.235.821.455.968.66l.704 7.172-.176.44c-.117.294-.279.646-.484 1.056a5.262 5.262 0 0 1-.748 1.056c-.293.294-.601.44-.924.44-.44 0-.924-.234-1.452-.704-.499-.469-.924-1.144-1.276-2.024-.352-.88-.513-1.921-.484-3.124.029-1.202.191-2.229.484-3.08.323-.88.631-1.54.924-1.98.323-.469.484-.718.484-.748 0-.058.205 0 .616.176.44.176.895.396 1.364.66Zm13.513 7.612c.44 1.291.866 2.552 1.276 3.784l.176.44c.147.294.382.631.704 1.012.323.382.748.719 1.276 1.012.558.294 1.247.44 2.068.44.998 0 1.76-.19 2.288-.572.558-.381.954-.748 1.188-1.1l.352-.572 6.204-13.2.044-.352c.059-.234.044-.498-.044-.792-.058-.322-.264-.601-.616-.836-.352-.264-.909-.41-1.672-.44-1.525-.058-2.596.074-3.212.396-.586.294-1.056.91-1.408 1.848a82.1 82.1 0 0 0-.616 1.716l-.704 1.936a42.555 42.555 0 0 0-.572 1.584l-.22.616-.704 3.564-.308-2.552-1.848-7.568-.22-.396c-.117-.293-.41-.572-.88-.836-.469-.293-1.188-.44-2.156-.44-1.437 0-2.405.25-2.904.748-.498.499-.63 1.115-.396 1.848l.616 1.848c.294.88.631 1.922 1.012 3.124.411 1.174.836 2.42 1.276 3.74Zm34.262-3.036c.734-.909 1.144-2.097 1.232-3.564 0-.205-.073-.572-.22-1.1-.117-.528-.454-1.085-1.012-1.672-.557-.586-1.452-1.085-2.684-1.496-1.232-.41-2.948-.601-5.148-.572-1.76.03-3.212.264-4.356.704-1.114.44-1.994 1.012-2.64 1.716-.645.704-1.129 1.452-1.452 2.244a9.406 9.406 0 0 0-.572 2.2 21.872 21.872 0 0 0-.088 1.716c0 .44.074 1.056.22 1.848.176.763.455 1.599.836 2.508.411.88.998 1.731 1.76 2.552.763.792 1.731 1.438 2.904 1.936 1.174.499 2.626.734 4.356.704 1.79-.029 3.256-.19 4.4-.484 1.144-.322 2.039-.674 2.684-1.056.646-.381 1.086-.704 1.32-.968l.396-.44.22-.44c.176-.322.264-.674.264-1.056.03-.41-.176-.762-.616-1.056-.41-.322-1.217-.484-2.42-.484-1.056 0-1.936.132-2.64.396-.674.235-1.173.484-1.496.748l-.484.396-.352.264a3.118 3.118 0 0 1-.836.484 2.456 2.456 0 0 1-1.144.088c-.381-.058-.733-.308-1.056-.748-.322-.44-.572-1.173-.748-2.2h1.012c.704 0 1.57-.073 2.596-.22a13.659 13.659 0 0 0 3.08-.924 7.305 7.305 0 0 0 2.684-2.024Zm-5.984-1.012c-.88.616-2.214.998-4.004 1.144l.044-.836c.03-.586.132-1.261.308-2.024.176-.792.484-1.481.924-2.068.44-.616 1.086-.938 1.936-.968.851-.058 1.482.191 1.892.748.44.528.587 1.174.44 1.936-.146.763-.66 1.452-1.54 2.068Z" fill="#6745FF"/>
    </g>
    <defs>
        <filter id="a" x="0" y="0" width="265.905" height="142.653" filterUnits="userSpaceOnUse" color-interpolation-filters="sRGB">
            <feFlood flood-opacity="0" result="BackgroundImageFix"/>
            <feColorMatrix in="SourceAlpha" values="0 0 0 0 0 0 0 0 0 0 0 0 0 0 0 0 0 0 127 0" result="hardAlpha"/>
            <feOffset dy="4"/>
            <feGaussianBlur stdDeviation="2"/>
            <feComposite in2="hardAlpha" operator="out"/>
            <feColorMatrix values="0 0 0 0 0 0 0 0 0 0 0 0 0 0 0 0 0 0 0.25 0"/>
            <feBlend in2="BackgroundImageFix" result="effect1_dropShadow_6_133"/>
            <feBlend in="SourceGraphic" in2="effect1_dropShadow_6_133" result="shape"/>
        </filter>
    </defs>
</svg>
